/* XPM */
static char * radarcoin16_xpm[] = {
"16 16 2 1",
" 	c None",
".	c #2F273D",
"                ",
"     ......     ",
"   ..      ..   ",
"  .          .  ",
"  .          .  ",
" .            . ",
" .         .  . ",
" .     .   . .. ",
"..     .   . .. ",
" .    .. . .  . ",
" .   ....   . . ",
"    ...  .      ",
"  ....    .  .  ",
"   .  ....  .   ",
"     . .  .     ",
"                "};
